# xmcd
#
# Track frame offsets:
#	150
#	21373
#	42481
#	59467
#	78791
#	100500
#	121006
#	138819
#	156473
#	173777
#	190967
#	202484
#
# Disc length: 2969 seconds
#
# Revision: 1
# Processed by: cddbd v1.5.1PL0 Copyright (c) Steve Scherf et al.
# Submitted via: EasyCDDAExtractor 6.5.7.1
#
DISCID=a20b970c
DTITLE=Various Artist - O Melhor dos festivais Gaúchos V.2
DYEAR=2000
DGENRE=gaúcha
TTITLE0=Elmo de Freitas e Grupo - Lago Verde-Azul
TTITLE1=Leonardo - Cé, Sol, Sul, Terra e Cor
TTITLE2=Neto Fagundes - Canto Alegretense
TTITLE3=José Claúdio Machado - Poncho Molhado
TTITLE4=Luis Carlos Borges - Chamamecero
TTITLE5=Dante Ramon Ledesma - Romance da Tafona
TTITLE6=Elton Saldanha - Canta Catarina
TTITLE7=Victor hugo - Semeadura
TTITLE8=Elton Saldanha - Os Cardeais
TTITLE9=José Claúdio Machado - Pêlos
TTITLE10=Caverá - Gaudêncio Sete Luas
TTITLE11=Leopoldo Rassier - Não podemo se entrega pros Home
EXTD=
EXTT0=
EXTT1=
EXTT2=
EXTT3=
EXTT4=
EXTT5=
EXTT6=
EXTT7=
EXTT8=
EXTT9=
EXTT10=
EXTT11=
PLAYORDER=
